<?xml version="1.0" standalone="no"?>
<!DOCTYPE svg PUBLIC "-//W3C//DTD SVG 20010904//EN"
 "http://www.w3.org/TR/2001/REC-SVG-20010904/DTD/svg10.dtd">
<svg version="1.0" xmlns="http://www.w3.org/2000/svg"
 width="672.000000pt" height="673.000000pt" viewBox="0 0 672.000000 673.000000"
 preserveAspectRatio="xMidYMid meet">

<g transform="translate(0.000000,673.000000) scale(0.100000,-0.100000)"
fill="#000000" stroke="none">
<path d="M4536 6639 c3 -5 12 -9 20 -9 8 0 24 -11 36 -25 12 -14 26 -25 32
-25 19 0 -46 58 -70 63 -13 2 -21 0 -18 -4z"/>
<path d="M4453 6633 c9 -2 23 -2 30 0 6 3 -1 5 -18 5 -16 0 -22 -2 -12 -5z"/>
<path d="M4640 6563 c-1 -24 -32 -35 -195 -73 -188 -43 -331 -85 -340 -101 -8
-12 -8 -12 51 11 29 10 96 30 150 43 120 30 273 66 304 72 13 2 23 6 24 7 1 2
10 13 20 26 17 19 17 22 3 22 -10 0 -17 -3 -17 -7z"/>
<path d="M4770 6531 c0 -11 4 -22 9 -25 4 -3 6 6 3 19 -5 30 -12 33 -12 6z"/>
<path d="M4863 6473 c9 -2 23 -2 30 0 6 3 -1 5 -18 5 -16 0 -22 -2 -12 -5z"/>
<path d="M4495 6372 c-123 -42 -192 -112 -164 -164 17 -32 34 -44 109 -81 61
-30 72 -32 170 -32 88 0 113 4 155 23 52 24 85 49 85 64 0 5 -17 -4 -37 -20
-54 -42 -105 -56 -208 -56 -77 0 -98 4 -150 27 -68 32 -115 72 -115 99 0 51
60 97 173 134 40 13 63 23 52 23 -11 0 -43 -7 -70 -17z"/>
<path d="M4681 6376 c2 -2 32 -20 66 -40 34 -20 71 -48 82 -62 12 -15 21 -22
21 -17 0 17 -38 50 -98 87 -50 30 -87 47 -71 32z"/>
<path d="M5150 6376 c0 -2 7 -7 16 -10 8 -3 12 -2 9 4 -6 10 -25 14 -25 6z"/>
<path d="M5202 6344 c10 -10 20 -16 22 -13 3 3 -5 11 -17 18 -21 13 -21 12 -5
-5z"/>
<path d="M6574 6241 c-199 -78 -300 -164 -514 -436 -129 -165 -214 -251 -278
-284 -45 -23 -120 -28 -154 -10 -14 8 -18 8 -14 0 14 -22 81 -34 122 -21 98
31 167 94 326 298 228 291 319 369 526 448 48 18 80 33 72 33 -8 0 -47 -12
-86 -28z"/>
<path d="M5321 6257 c2 -1 13 -9 24 -17 19 -14 19 -14 6 3 -7 9 -18 17 -24 17
-6 0 -8 -1 -6 -3z"/>
<path d="M4852 6220 c0 -14 2 -19 5 -12 2 6 2 18 0 25 -3 6 -5 1 -5 -13z"/>
<path d="M5370 6163 c14 -10 42 -33 62 -53 39 -37 65 -51 51 -26 -9 17 -64 58
-108 81 -30 15 -30 15 -5 -2z"/>
<path d="M5235 6160 c-3 -6 1 -7 9 -4 18 7 21 14 7 14 -6 0 -13 -4 -16 -10z"/>
<path d="M2798 6068 c-36 -47 -72 -123 -98 -203 -38 -120 -25 -316 26 -389 23
-33 17 -43 -31 -55 -25 -6 -45 -14 -45 -17 0 -3 8 -3 18 0 10 4 92 17 181 31
90 13 166 27 169 30 4 3 -12 4 -33 1 -22 -3 -78 -10 -123 -16 -98 -13 -110 -8
-139 69 -14 36 -18 75 -18 186 0 135 1 143 33 220 18 44 46 101 62 128 34 55
33 61 -2 15z"/>
<path d="M4852 6048 c-7 -7 -12 -26 -12 -43 0 -23 7 -35 29 -48 16 -9 33 -17
38 -17 4 1 -4 8 -19 16 -29 15 -36 30 -18 36 5 2 12 18 16 36 7 34 -10 44 -34
20z"/>
<path d="M5477 6008 c4 -58 -13 -89 -59 -107 -18 -8 -19 -10 -5 -10 10 -1 32
12 48 28 23 24 29 38 29 73 0 24 -4 49 -9 56 -4 7 -6 -10 -4 -40z"/>
<path d="M4112 6042 c-13 -4 23 -7 80 -7 94 0 108 -2 163 -30 113 -56 152
-140 162 -343 6 -112 8 -126 32 -156 31 -40 90 -80 151 -101 59 -21 79 -41 92
-92 14 -56 33 -70 24 -17 -12 62 -30 81 -129 129 -64 32 -100 57 -119 82 -26
33 -28 44 -28 127 0 146 -35 270 -94 334 -11 13 -43 36 -71 50 -42 22 -66 26
-145 28 -52 2 -105 0 -118 -4z"/>
<path d="M4926 6039 c13 -22 74 -39 138 -39 63 0 65 -1 69 -27 4 -21 4 -19 3
7 l-1 35 -65 1 c-37 0 -82 8 -104 17 -45 20 -49 21 -40 6z"/>
<path d="M5230 6004 c2 -31 97 -104 135 -104 11 1 2 7 -20 15 -22 8 -57 32
-77 56 -21 23 -38 38 -38 33z"/>
<path d="M6610 5954 c-140 -75 -279 -157 -310 -183 -14 -12 8 -1 49 25 41 26
140 81 220 122 80 41 148 78 149 83 5 13 6 13 -108 -47z"/>
<path d="M2916 5985 c-9 -26 -7 -32 5 -12 6 10 9 21 6 23 -2 3 -7 -2 -11 -11z"/>
<path d="M4928 5933 c6 -2 18 -2 25 0 6 3 1 5 -13 5 -14 0 -19 -2 -12 -5z"/>
<path d="M5042 5910 c0 -14 2 -19 5 -12 2 6 2 18 0 25 -3 6 -5 1 -5 -13z"/>
<path d="M5552 5880 c0 -14 2 -19 5 -12 2 6 2 18 0 25 -3 6 -5 1 -5 -13z"/>
<path d="M5562 5820 c0 -19 2 -27 5 -17 2 9 2 25 0 35 -3 9 -5 1 -5 -18z"/>
<path d="M5243 5762 c-31 -12 -45 -24 -57 -51 -25 -60 -29 -126 -10 -166 17
-36 50 -50 40 -17 -25 84 -18 129 30 182 19 21 49 42 66 45 39 9 116 -13 129
-36 5 -11 14 -19 20 -19 18 0 -11 40 -44 60 -39 24 -115 25 -174 2z"/>
<path d="M5572 5670 c-2 -63 -5 -132 -8 -152 -3 -22 -1 -38 4 -38 15 0 18 43
12 180 l-6 125 -2 -115z"/>
<path d="M6239 5723 l-24 -28 28 24 c15 14 27 26 27 28 0 8 -8 1 -31 -24z"/>
<path d="M1789 5678 c-13 -22 -35 -56 -47 -75 -13 -20 -34 -59 -46 -87 -24
-54 -49 -82 -65 -72 -13 8 -182 -29 -273 -60 -40 -13 -108 -41 -151 -61 -79
-37 -95 -56 -84 -100 3 -10 5 -5 6 13 1 30 7 35 84 73 78 38 188 74 325 105
l64 15 -7 -27 c-4 -15 -21 -128 -39 -252 -25 -179 -37 -234 -56 -268 -13 -23
-27 -42 -30 -42 -4 0 -17 12 -31 26 -13 14 -34 30 -46 34 -12 5 -24 21 -28 39
-10 47 -31 38 -45 -19 -13 -55 -8 -149 16 -264 12 -60 12 -90 1 -75 -13 16
-129 364 -181 539 -13 47 -25 78 -25 70 -1 -22 77 -298 134 -477 l14 -42 -65
-30 c-146 -68 -346 -230 -467 -378 -226 -277 -408 -679 -491 -1083 -13 -63
-31 -128 -40 -145 -9 -16 -12 -31 -8 -33 5 -1 2 -48 -5 -105 -9 -67 -12 -147
-8 -232 3 -71 8 -205 11 -297 4 -93 10 -168 14 -168 4 0 12 69 19 153 26 349
104 731 216 1065 30 89 55 165 55 170 -2 34 -113 -271 -156 -425 -41 -153
-110 -484 -120 -579 -6 -57 -9 -64 -17 -43 -10 26 -2 257 13 374 33 256 51
330 142 600 172 504 443 871 804 1088 87 52 93 51 128 -29 l17 -40 -45 -77
c-61 -103 -175 -337 -224 -462 -54 -137 -79 -220 -86 -290 l-6 -60 24 85 c64
225 287 690 439 915 179 266 381 463 553 539 49 22 61 31 57 46 -3 12 18 53
56 111 34 50 61 95 59 99 -6 13 -134 123 -234 200 l-102 78 -23 -40z m102 -43
c89 -67 227 -187 228 -198 1 -14 -128 -152 -244 -260 -64 -60 -100 -88 -85
-67 13 19 41 50 62 69 41 35 76 91 58 91 -6 0 -25 -8 -43 -17 -37 -19 -91 -18
-128 4 -25 15 -27 20 -32 132 -4 111 -4 118 21 161 31 55 83 140 86 140 1 0
36 -25 77 -55z"/>
<path d="M5326 5638 c-3 -35 -7 -72 -9 -82 -1 -10 3 -20 8 -22 14 -6 33 83 27
129 -7 56 -18 45 -26 -25z"/>
<path d="M2801 5654 c0 -11 3 -14 6 -6 3 7 2 16 -1 19 -3 4 -6 -2 -5 -13z"/>
<path d="M5425 5638 c-59 -21 -60 -22 -28 -26 23 -2 39 3 55 17 24 23 19 24
-27 9z"/>
<path d="M5426 5505 c-22 -19 -48 -35 -58 -35 -10 0 -18 -5 -18 -11 0 -28 86
17 117 61 21 30 2 23 -41 -15z"/>
<path d="M4037 5490 c122 -11 182 -32 255 -91 75 -60 122 -76 156 -53 16 11
36 14 59 11 20 -4 31 -2 28 4 -8 12 -62 11 -87 -2 -34 -18 -81 -1 -143 51 -77
65 -126 81 -255 85 l-105 4 92 -9z"/>
<path d="M5930 5404 c-107 -94 -148 -111 -238 -97 -94 14 -98 11 -61 -53 31
-55 47 -139 36 -187 -11 -40 -82 -120 -136 -152 -50 -30 -63 -45 -38 -45 15 0
127 72 127 82 0 4 14 28 32 52 42 60 48 128 19 211 -12 32 -21 63 -21 67 0 5
28 6 63 2 77 -8 110 5 188 72 48 42 128 125 118 123 -2 0 -42 -34 -89 -75z"/>
<path d="M3038 5463 c7 -3 16 -2 19 1 4 3 -2 6 -13 5 -11 0 -14 -3 -6 -6z"/>
<path d="M3679 5435 c-3 -16 8 -23 78 -47 73 -24 123 -47 253 -114 44 -22 136
-93 262 -201 247 -211 367 -363 499 -625 90 -180 121 -268 204 -576 41 -152
78 -290 83 -307 11 -36 75 -164 108 -217 40 -63 7 -43 -91 56 -88 88 -92 91
-83 57 33 -119 207 -370 293 -423 l30 -18 -72 0 c-90 0 -99 -19 -10 -22 34 -1
72 -2 84 -2 11 -1 25 -4 29 -8 10 -11 34 -10 34 1 0 5 -14 14 -30 21 -36 15
-118 103 -181 193 l-43 62 34 -27 c45 -36 94 -58 265 -120 77 -28 164 -62 194
-75 l54 -23 -24 -26 c-86 -93 -288 -196 -469 -239 -41 -10 -83 -22 -92 -27
-23 -11 -23 5 -2 63 10 27 16 76 16 126 0 68 3 83 17 86 9 2 -13 6 -49 10 -36
3 -119 11 -185 17 -136 13 -273 39 -358 69 -110 38 -287 142 -361 211 -125
116 -36 2 134 -174 99 -102 111 -118 85 -112 -91 21 -359 178 -374 218 -24 65
-24 68 3 68 18 0 24 4 20 15 -4 8 -12 15 -19 15 -7 0 -23 9 -37 19 -13 11 -40
24 -59 30 -30 9 -27 10 30 7 59 -3 62 -2 40 10 -29 16 -103 38 -180 54 -35 6
-64 19 -76 33 -66 72 -233 347 -233 383 0 8 11 14 28 15 15 0 36 4 47 9 l20 9
-20 1 c-15 1 -12 5 12 13 69 26 30 34 -50 11 -18 -6 -18 -4 -1 28 35 67 55
171 60 308 3 75 1 153 -4 175 -8 33 -10 15 -11 -95 -1 -156 -11 -223 -47 -337
l-26 -83 -171 -2 c-125 -2 -171 -6 -175 -15 -2 -8 5 -13 17 -13 13 0 21 -6 21
-17 0 -14 13 -15 131 -9 l131 6 -20 -32 c-11 -18 -41 -69 -67 -113 -27 -44
-70 -112 -96 -151 l-48 -71 -91 -10 c-50 -6 -97 -16 -103 -23 -9 -10 -7 -11
13 -6 23 6 23 6 8 -7 -24 -19 -13 -27 28 -20 22 4 34 2 34 -6 0 -6 -9 -11 -20
-11 -11 0 -20 -5 -20 -11 0 -5 4 -8 9 -5 4 3 16 -3 25 -13 16 -18 14 -23 -57
-107 -41 -49 -109 -127 -150 -174 -41 -47 -74 -86 -73 -88 5 -5 205 204 268
280 l63 77 78 0 c70 1 78 -1 73 -16 -18 -60 -35 -158 -38 -223 l-3 -75 32 -2
c37 -1 82 -31 83 -53 0 -21 -54 -52 -83 -48 -20 3 -22 -1 -21 -48 5 -177 135
-308 309 -309 63 0 77 4 140 39 120 67 131 79 185 190 28 56 50 107 50 114 0
8 -18 12 -53 12 -119 0 -136 87 -18 94 43 2 57 -1 72 -17 10 -11 22 -18 25
-14 4 4 9 40 12 82 2 41 7 75 9 75 2 0 23 -13 46 -29 54 -36 195 -107 272
-136 58 -22 60 -24 57 -56 -5 -46 -47 -187 -76 -257 -71 -169 -99 -227 -126
-267 -16 -24 -30 -49 -30 -56 0 -7 -12 -26 -27 -41 -15 -15 -22 -28 -16 -28
18 0 96 62 157 124 32 34 55 52 51 41 -23 -64 -57 -224 -67 -313 l-11 -103
-81 -48 c-45 -27 -110 -59 -146 -71 -66 -22 -120 -49 -222 -112 -31 -19 -98
-47 -150 -61 -51 -14 -136 -38 -188 -53 -52 -15 -129 -30 -172 -34 -42 -5 -91
-12 -110 -18 -18 -6 -98 -13 -178 -15 -80 -3 -163 -11 -185 -18 -46 -13 -185
-8 -395 16 -169 20 -340 54 -499 100 -68 19 -126 34 -128 32 -5 -6 88 -40 170
-63 37 -10 67 -24 67 -31 0 -7 -6 -13 -13 -13 -20 0 -62 -49 -91 -107 -24 -48
-29 -53 -60 -53 -18 0 -39 7 -47 16 -16 20 -83 54 -105 54 -14 0 -16 -8 -11
-47 6 -57 -4 -87 -43 -123 -58 -54 -31 -87 62 -78 40 4 47 1 101 -45 37 -33
57 -58 57 -72 0 -19 -7 -23 -54 -28 -29 -3 -75 -17 -102 -30 -49 -25 -135
-108 -167 -159 -24 -39 -49 -152 -50 -230 -1 -81 12 -104 97 -163 52 -36 64
-40 134 -44 60 -3 83 0 110 15 39 21 46 15 56 -47 10 -60 38 -73 139 -65 45 4
96 9 114 12 27 5 33 2 45 -22 7 -15 26 -36 41 -48 53 -39 243 -31 377 15 68
24 95 24 128 1 15 -10 35 -22 45 -25 9 -4 17 -13 17 -22 0 -12 -14 -15 -69
-15 -66 0 -70 -1 -99 -35 -30 -34 -56 -100 -46 -117 11 -17 21 -7 22 21 1 32
23 81 44 98 7 6 46 13 87 17 41 3 79 10 84 15 5 5 26 4 50 -2 23 -5 125 -10
227 -10 206 -1 276 10 378 62 l59 30 86 -27 c48 -15 87 -29 87 -32 0 -6 -129
-37 -484 -115 -137 -30 -254 -58 -260 -62 -19 -12 -120 -21 -133 -11 -7 5 -14
5 -18 -2 -3 -5 -20 -10 -37 -10 -28 0 -30 2 -26 30 7 44 -8 47 -23 5 -10 -27
-19 -35 -37 -35 -25 0 -26 5 -7 68 10 31 -7 28 -26 -5 -10 -17 -13 -38 -9 -53
l6 -25 119 3 c66 2 138 8 160 13 22 6 132 30 245 54 113 23 230 50 260 59 30
8 116 29 190 45 74 16 148 34 164 41 17 6 82 20 145 31 63 10 133 28 155 39
23 10 75 33 116 50 125 51 241 130 314 215 27 31 63 63 80 71 30 15 98 99 123
153 7 14 12 62 13 106 l0 79 62 60 c35 32 76 67 93 77 26 16 32 29 47 96 28
135 103 419 182 693 42 146 102 365 133 487 31 123 60 223 65 223 21 0 178 80
238 120 71 48 140 114 140 133 0 16 -58 44 -209 100 l-114 42 -36 68 c-20 37
-43 76 -52 85 -13 15 -15 39 -11 137 4 110 -4 225 -29 427 -6 43 -30 144 -55
224 -24 81 -43 148 -41 150 1 2 20 -1 42 -6 22 -5 91 -13 153 -16 l112 -7 10
-36 c43 -159 45 -460 5 -851 -2 -25 4 -4 15 45 53 254 51 686 -5 826 -5 14 4
17 58 21 96 8 121 23 127 78 l5 45 28 -45 c16 -25 38 -58 50 -75 39 -55 208
-399 239 -485 129 -365 188 -635 222 -1008 7 -84 16 -156 20 -159 4 -4 14 1
24 11 14 14 14 17 2 14 -12 -2 -15 12 -15 82 0 51 -5 89 -11 95 -7 6 -17 60
-23 120 -23 218 -86 525 -127 624 -8 19 -12 41 -10 48 3 7 -12 59 -34 115 -22
56 -40 104 -40 107 0 3 20 14 44 24 70 29 147 110 178 188 15 36 29 83 32 105
5 29 1 23 -13 -22 -29 -96 -52 -135 -106 -188 -47 -45 -111 -86 -134 -86 -6 0
-20 24 -32 53 -60 141 -195 383 -271 483 -45 60 -64 119 -43 132 18 10 85 151
85 179 0 45 -22 123 -43 152 -58 79 -87 113 -87 104 0 -5 20 -36 45 -67 54
-71 68 -115 56 -182 -9 -46 -60 -163 -71 -164 -3 0 -32 50 -64 110 -39 74 -63
110 -74 110 -9 -1 -43 -7 -75 -15 -49 -11 -62 -11 -85 1 -57 29 -125 38 -180
21 -29 -8 -52 -13 -52 -10 0 17 119 138 226 229 68 58 124 109 124 113 0 14
-45 49 -135 106 -49 32 -121 79 -160 104 -90 60 -132 78 -154 64 -40 -25 -170
-298 -215 -455 -12 -43 -24 -80 -27 -82 -3 -3 -35 23 -71 58 -183 175 -428
343 -572 392 -38 13 -78 24 -88 24 -10 0 -58 20 -106 44 -48 24 -124 56 -169
71 -51 17 -83 34 -86 44 -3 13 -4 12 -8 -4z m1524 -212 c84 -53 172 -108 196
-123 l44 -28 -63 -48 c-35 -27 -97 -78 -137 -114 -41 -36 -92 -73 -114 -82
l-39 -17 -26 52 c-15 29 -39 70 -54 92 -19 29 -32 66 -42 130 l-15 90 30 60
c33 67 45 85 59 85 5 0 77 -43 161 -97z m-1070 15 c265 -136 540 -359 731
-593 206 -252 255 -339 331 -591 43 -141 76 -434 56 -489 -9 -25 -9 -45 -1
-81 13 -56 4 -187 -12 -182 -6 2 -42 55 -80 116 -64 106 -71 122 -103 257 -19
80 -51 211 -70 291 -19 80 -35 148 -35 151 0 11 62 -71 108 -142 50 -77 95
-177 137 -305 16 -47 30 -79 33 -72 6 20 -55 197 -100 291 -41 84 -106 180
-159 236 -16 17 -38 57 -49 89 -11 32 -40 94 -65 137 -25 43 -45 80 -45 82 0
15 -131 234 -174 292 -125 166 -357 394 -496 487 -41 27 -77 52 -79 54 -12 12
17 0 72 -28z m1175 -537 c10 -6 3 -10 -21 -15 -20 -4 -86 -23 -147 -42 -62
-19 -114 -33 -117 -31 -9 9 88 80 120 87 45 11 149 11 165 1z m323 -301 c4
-36 11 -75 15 -87 10 -35 -28 -43 -197 -43 l-151 0 -21 27 c-12 15 -48 54 -80
86 -52 53 -58 63 -55 95 l3 37 100 36 c55 20 139 56 185 80 l85 44 54 -105
c40 -79 56 -121 62 -170z m-2127 -600 c22 -55 112 -207 163 -274 l37 -48 -50
5 c-27 4 -80 9 -119 13 -59 5 -75 11 -109 40 -40 35 -62 39 -33 6 10 -10 17
-22 17 -25 0 -4 -34 -7 -76 -7 l-76 0 21 33 c12 17 47 75 78 127 97 164 116
191 123 183 4 -4 15 -28 24 -53z m-314 -330 c0 -13 -11 -13 -30 0 -12 8 -11
10 8 10 12 0 22 -4 22 -10z m188 -7 c-21 -2 -57 -2 -80 0 -24 2 -7 4 37 4 44
0 63 -2 43 -4z m142 -13 c-12 -8 -12 -11 3 -28 18 -20 23 -42 9 -42 -18 0 -40
26 -44 53 -5 24 -2 27 21 27 20 0 23 -3 11 -10z m1591 -116 c13 -14 46 -40 72
-57 27 -17 44 -33 39 -35 -15 -5 -130 76 -143 99 -14 27 3 23 32 -7z m209 -85
c17 -33 30 -63 27 -66 -3 -2 -27 5 -53 16 -26 12 -45 24 -42 27 4 3 15 0 27
-7 29 -19 40 -1 14 21 -22 18 -33 70 -14 70 4 0 23 -27 41 -61z m-1617 -66 c3
-10 4 -33 2 -52 -4 -47 1 -56 37 -58 17 -1 36 -7 41 -12 11 -11 -30 -41 -59
-41 -27 0 -40 -15 -48 -57 -8 -36 -32 -61 -46 -47 -5 5 -10 29 -12 53 -3 43
-4 44 -51 56 -59 15 -90 41 -67 55 8 5 33 10 55 10 48 0 60 7 70 40 18 62 67
95 78 53z m654 -38 c157 -93 376 -145 610 -145 l103 0 -10 -26 c-8 -20 -6 -29
6 -42 12 -12 15 -27 10 -61 -8 -59 -35 -142 -52 -162 -8 -8 -14 -23 -14 -33 0
-20 -46 -113 -100 -201 -41 -67 -206 -239 -254 -264 -33 -18 -191 -181 -229
-238 -40 -58 -76 -151 -77 -195 0 -70 -19 -41 -56 87 -21 72 -18 260 6 397 21
125 64 281 86 316 41 65 42 72 3 27 -68 -79 -212 -225 -217 -221 -2 2 12 30
32 60 97 152 184 363 207 504 11 66 13 71 28 58 20 -19 101 -56 121 -56 8 0
-5 11 -29 25 -74 43 -263 205 -239 205 4 0 33 -16 65 -35z m-970 -72 c-3 -10
-5 -2 -5 17 0 19 2 27 5 18 2 -10 2 -26 0 -35z m133 37 c-19 -13 -30 -13 -30
0 0 6 10 10 23 10 18 0 19 -2 7 -10z m290 -79 c-13 -26 -18 -28 -65 -35 -33
-5 -35 -4 -13 3 16 5 40 18 55 30 35 25 36 26 23 2z m-373 -33 c-3 -7 -5 -2
-5 12 0 14 2 19 5 13 2 -7 2 -19 0 -25z m152 -25 c-1 -23 -2 -24 -6 -6 -2 12
-12 24 -21 26 -12 3 -10 5 6 6 18 1 22 -4 21 -26z m-192 -25 c-3 -8 -6 -5 -6
6 -1 11 2 17 5 13 3 -3 4 -12 1 -19z m-70 -25 c-3 -10 -5 -4 -5 12 0 17 2 24
5 18 2 -7 2 -21 0 -30z m93 -28 c0 -5 -5 -3 -10 5 -5 8 -10 20 -10 25 0 6 5 3
10 -5 5 -8 10 -19 10 -25z m-83 -27 c-3 -7 -5 -2 -5 12 0 14 2 19 5 13 2 -7 2
-19 0 -25z m370 -28 c23 -10 44 -27 48 -39 l6 -21 28 19 c34 25 51 13 51 -35
0 -41 -14 -50 -45 -30 -20 13 -25 14 -25 3 0 -17 -36 -50 -79 -72 -25 -13 -49
-15 -100 -11 -81 6 -92 8 -86 14 3 3 -2 13 -11 23 -23 26 -20 83 6 120 43 59
112 69 207 29z m-348 -35 c0 -5 -4 -3 -9 5 -5 8 -9 22 -9 30 0 16 17 -16 18
-35z m1931 -63 c0 -13 -212 -775 -239 -862 -5 -14 -6 45 -3 130 5 165 -10 402
-32 510 -13 63 -13 66 12 118 24 48 31 54 77 67 27 7 73 20 100 28 59 18 85
20 85 9z m-1801 -68 c14 -12 -19 -1 -35 12 -18 14 -18 14 6 3 14 -6 27 -13 29
-15z m1521 -330 c14 -197 11 -330 -7 -327 -6 2 -25 4 -42 5 -28 2 -31 6 -36
48 -11 85 -19 100 -23 43 -2 -37 -7 -53 -17 -53 -27 0 -27 -22 -1 -44 l27 -21
-10 -120 c-10 -106 -26 -216 -46 -310 l-6 -30 15 25 c23 41 47 176 53 308 3
67 10 125 14 128 5 2 15 -8 23 -23 8 -15 24 -38 36 -51 19 -21 22 -34 21 -107
-1 -47 -8 -117 -16 -157 -72 -357 -69 -348 -106 -376 -19 -14 -56 -43 -82 -65
-27 -21 -50 -37 -52 -35 -2 2 -7 38 -11 79 -6 66 -3 86 17 145 22 63 24 85 24
255 0 165 -2 189 -18 206 -17 19 -17 22 9 71 14 28 26 66 26 85 0 41 -56 153
-84 168 -22 12 -24 31 -3 27 19 -4 142 136 213 243 43 65 59 82 64 69 3 -9 11
-93 18 -186z m-260 -387 c0 -7 -18 -31 -40 -52 -22 -21 -40 -45 -40 -53 0 -7
-5 -10 -10 -7 -6 4 -8 10 -5 15 3 5 -2 21 -10 34 -16 24 -16 27 16 65 32 38
34 39 61 25 16 -8 28 -20 28 -27z m-542 -17 c37 0 40 -2 46 -35 6 -32 39 -111
90 -215 21 -44 23 -45 72 -47 45 -2 46 -1 18 8 -47 14 -58 33 -57 103 0 51 7
77 33 130 33 66 33 66 75 66 27 0 54 -8 76 -23 39 -26 84 -110 98 -182 29
-162 42 -253 47 -360 l7 -121 -37 -102 c-20 -56 -44 -137 -52 -179 -23 -121
-62 -194 -152 -282 -161 -158 -436 -269 -682 -274 -76 -2 -200 29 -200 49 0
20 -9 18 -96 -22 -115 -52 -183 -64 -379 -64 -298 0 -381 33 -454 177 l-21 42
27 15 c51 25 177 67 291 97 63 16 130 38 151 50 31 17 83 83 100 124 14 35 24
34 51 -8 34 -53 81 -93 145 -123 65 -31 92 -31 38 0 -109 63 -175 143 -193
235 -5 28 -14 59 -18 69 -5 9 -12 33 -15 53 -5 33 -2 38 26 52 22 11 26 16 14
16 -10 1 -28 -4 -39 -10 -14 -8 -23 -8 -31 0 -14 14 36 67 110 118 29 20 51
38 49 41 -18 17 -196 -113 -196 -144 0 -19 -54 -18 -71 2 -17 21 -63 44 -88
44 -12 0 -38 -15 -58 -33 -21 -19 -51 -41 -68 -49 -16 -9 -48 -25 -70 -37 -21
-12 -52 -21 -67 -21 -15 0 -30 -5 -33 -10 -12 -20 23 -21 80 -2 l57 20 -28
-23 c-40 -32 -176 -56 -344 -61 -74 -2 -162 -10 -195 -18 -54 -13 -61 -13 -85
3 -14 10 -48 30 -77 46 -32 17 -56 38 -63 56 -12 28 -82 98 -198 197 -73 63
-96 114 -69 156 19 28 86 46 172 46 50 0 57 3 112 50 102 87 139 95 328 71 50
-6 120 -11 156 -11 67 0 129 -15 129 -31 0 -14 40 -10 107 11 149 46 520 49
658 5 39 -13 97 -26 130 -30 33 -4 68 -9 78 -11 9 -3 17 -1 17 4 0 5 -50 20
-110 32 -61 13 -108 26 -105 28 3 3 44 21 91 39 65 25 101 33 149 33 35 0 70
3 79 6 20 8 11 24 -14 24 -14 0 -18 5 -13 16 9 23 128 110 199 145 80 40 193
70 216 58 9 -5 34 -9 56 -9z m552 -249 c0 -158 -7 -241 -21 -241 -5 0 -9 28
-9 61 0 34 -4 78 -10 98 -5 20 -16 70 -24 111 -8 41 -17 83 -21 93 -6 13 -2
17 16 17 13 0 31 4 39 9 8 6 18 7 22 5 4 -3 8 -72 8 -153z m-1043 64 c-9 -19
-20 -25 -43 -25 -17 0 -50 -7 -74 -15 -31 -11 -40 -11 -37 -2 3 9 120 58 159
66 3 0 1 -10 -5 -24z m-1571 -85 c22 0 16 -17 -9 -23 -12 -4 -52 -31 -89 -62
-43 -35 -77 -55 -93 -55 l-25 0 15 38 c31 74 94 116 159 106 16 -2 35 -4 42
-4z m1167 -7 c-7 -2 -21 -2 -30 0 -10 3 -4 5 12 5 17 0 24 -2 18 -5z m-1553
-108 c17 -9 30 -20 30 -25 0 -16 -13 -11 -45 15 -34 28 -28 32 15 10z m-30
-94 c0 -6 -4 -13 -10 -16 -5 -3 -10 1 -10 9 0 9 5 16 10 16 6 0 10 -4 10 -9z
m-56 -76 c-5 -11 0 -12 25 -5 27 7 31 6 31 -11 0 -16 -5 -18 -27 -13 -35 8
-47 19 -39 33 10 16 16 13 10 -4z m1362 -191 c17 -12 23 -22 18 -36 -5 -18 -2
-19 33 -12 71 14 86 11 97 -19 7 -20 7 -34 -2 -47 -16 -27 -15 -30 8 -30 32 0
25 -44 -21 -129 -37 -68 -48 -80 -98 -108 -31 -16 -100 -45 -154 -62 -54 -18
-149 -54 -212 -81 -130 -56 -323 -120 -435 -144 -105 -23 -300 -36 -322 -22
-10 6 -22 22 -27 36 -26 70 -47 337 -36 444 l7 66 82 0 c72 -1 88 -4 144 -34
l62 -33 -53 -26 c-52 -26 -112 -77 -89 -77 6 0 32 13 58 30 88 56 176 76 374
85 115 5 236 20 328 40 12 3 22 9 22 14 0 16 155 161 173 161 10 0 29 -7 43
-16z m-1057 -49 c29 -30 50 -58 48 -63 -3 -4 -35 -5 -72 -4 l-68 4 6 49 c10
86 17 87 86 14z m2748 -62 l-2 -118 -42 -60 c-35 -53 -73 -95 -73 -84 0 2 9
27 19 54 10 28 22 73 26 100 11 79 56 225 69 225 3 0 4 -53 3 -117z m-2859 46
c-3 -49 -4 -51 -42 -64 -55 -19 -104 -63 -138 -122 -48 -86 -49 -203 -1 -203
13 0 14 3 5 12 -7 7 -12 30 -12 52 l0 41 18 -23 c18 -24 73 -41 128 -42 31 0
32 -1 39 -57 3 -32 9 -67 11 -78 4 -16 -3 -25 -31 -38 -91 -43 -242 1 -297 88
-16 25 -19 43 -15 110 3 44 15 110 26 147 18 55 31 77 76 120 69 66 145 108
197 108 l39 0 -3 -51z m0 -201 l-3 -123 -64 3 c-70 2 -111 26 -111 64 0 48 63
130 125 162 55 29 56 27 53 -106z m777 -391 c16 -34 31 -65 32 -68 5 -9 -98
-36 -184 -48 -140 -21 -221 -10 -263 34 -17 19 -20 25 -9 29 8 2 63 16 122 31
60 15 143 40 185 56 43 15 79 28 82 28 3 0 18 -28 35 -62z"/>
<path d="M3981 1578 c-93 -11 -98 -18 -8 -11 70 5 81 4 107 -16 37 -27 59 -28
36 -2 -27 30 -64 38 -135 29z"/>
<path d="M2556 5362 c-3 -2 -60 -14 -128 -27 -130 -24 -212 -44 -206 -50 1 -2
37 5 79 15 41 10 129 25 195 35 65 9 120 18 122 20 2 1 -11 5 -28 7 -16 3 -32
3 -34 0z"/>
<path d="M4642 5316 c42 -17 84 -42 115 -70 28 -24 43 -14 19 13 -19 21 -95
56 -141 65 -26 5 -25 4 7 -8z"/>
<path d="M4618 5255 c-3 -5 -12 -38 -18 -73 -12 -61 -14 -63 -39 -58 -25 6
-25 6 -7 -9 29 -22 45 -18 52 13 3 15 9 36 14 47 8 18 9 17 9 -7 1 -35 26 -58
59 -57 l27 1 -26 9 c-28 10 -56 63 -61 114 -2 17 -6 26 -10 20z"/>
<path d="M2323 5093 c-27 -27 -59 -64 -72 -83 -13 -19 7 -2 44 37 36 40 74 77
83 83 9 5 12 10 5 10 -6 0 -33 -21 -60 -47z"/>
<path d="M6705 5081 c-3 -6 -33 -30 -67 -52 -66 -45 -122 -100 -144 -141 -21
-40 -61 -186 -68 -248 -4 -37 -3 -49 3 -35 5 11 10 35 10 52 1 51 58 216 89
259 16 21 57 59 92 84 93 67 106 78 99 85 -4 3 -10 2 -14 -4z"/>
<path d="M2124 4814 c-79 -135 -179 -472 -201 -674 -3 -33 -9 -60 -12 -60 -3
0 -30 16 -58 35 -63 43 -91 45 -43 5 19 -17 29 -30 22 -30 -23 0 -12 -20 31
-52 l44 -33 -4 -75 c-5 -73 -6 -78 -69 -170 -35 -52 -77 -110 -93 -128 l-29
-32 -121 12 c-94 9 -124 9 -133 0 -9 -9 -7 -12 10 -12 12 0 22 -4 22 -10 0 -5
10 -10 23 -11 13 -1 -1 -8 -33 -19 l-55 -18 53 -1 c63 -1 69 -17 10 -26 -79
-12 -98 -16 -104 -27 -5 -8 1 -9 17 -5 46 13 209 20 209 10 0 -11 -130 -138
-175 -171 -16 -12 -25 -21 -20 -22 14 0 54 27 126 84 43 34 60 43 56 30 -13
-44 -27 -141 -27 -190 0 -52 0 -53 32 -56 23 -2 37 -11 48 -30 22 -41 4 -64
-48 -61 l-39 2 5 -47 c3 -26 13 -71 23 -101 11 -30 19 -61 19 -69 0 -7 15 -38
33 -68 38 -65 88 -94 163 -94 54 0 142 36 165 66 8 11 26 25 41 33 32 17 72
88 93 166 16 62 15 67 -12 71 -32 5 -63 27 -63 45 0 20 28 39 58 39 15 0 19 8
20 36 2 51 12 56 12 6 0 -22 4 -43 9 -47 16 -9 26 61 26 178 0 59 4 107 8 107
5 0 -5 14 -22 31 -39 38 -40 53 -3 44 20 -5 24 -4 16 5 -15 15 -173 70 -201
70 -13 0 -23 5 -23 10 0 6 10 10 23 11 21 1 21 1 -3 8 -23 6 -25 12 -31 86 -5
75 0 325 7 325 2 0 23 -10 47 -21 30 -15 53 -20 70 -15 39 9 25 29 -49 73 -40
23 -64 44 -64 54 0 22 62 292 96 419 28 103 85 263 115 323 27 52 15 46 -17
-9z m-253 -741 c13 -16 12 -17 -3 -4 -10 7 -18 15 -18 17 0 8 8 3 21 -13z m26
-378 l1 -106 -36 7 c-90 15 -93 23 -36 104 24 35 46 71 49 81 13 41 20 14 22
-86z m12 -121 c12 -12 -10 -11 -54 1 l-50 15 50 -6 c28 -3 52 -8 54 -10z
m-145 -40 c11 -28 7 -35 -14 -24 -23 12 -27 40 -6 40 8 0 17 -7 20 -16z m182
-307 c6 -32 17 -64 23 -70 6 -6 11 -7 11 -3 0 5 7 3 15 -4 22 -18 19 -26 -15
-40 -22 -9 -38 -28 -57 -68 l-26 -56 -16 35 c-9 18 -19 36 -23 37 -5 2 -8 10
-8 18 0 14 -11 17 -82 29 -42 7 -52 17 -43 45 7 21 18 25 98 35 43 6 47 9 47
33 0 35 27 74 48 70 11 -2 20 -22 28 -61z m51 -29 c-3 -8 -6 -5 -6 6 -1 11 2
17 5 13 3 -3 4 -12 1 -19z m-184 5 c-7 -2 -21 -2 -30 0 -10 3 -4 5 12 5 17 0
24 -2 18 -5z m207 -38 c16 -19 0 -19 -26 0 -16 12 -16 14 -3 15 9 0 22 -7 29
-15z m67 -197 c-3 -8 -6 -5 -6 6 -1 11 2 17 5 13 3 -3 4 -12 1 -19z m-182 -51
c38 -24 51 -39 53 -61 8 -64 -43 -106 -125 -106 -56 0 -88 15 -115 51 -19 24
-19 27 -2 68 13 34 26 47 58 62 57 26 74 24 131 -14z m121 -51 c7 -29 -1 -46
-22 -46 -9 0 -14 11 -14 35 0 41 26 49 36 11z"/>
<path d="M1911 4814 c0 -12 -13 -39 -27 -60 -36 -54 -174 -193 -204 -206 -20
-9 -22 -12 -8 -15 23 -6 166 124 214 193 26 38 34 59 31 80 -3 19 -5 22 -6 8z"/>
<path d="M1950 4700 c-18 -39 -21 -53 -12 -62 15 -15 61 16 79 53 10 19 9 27
-4 41 -25 28 -38 22 -63 -32z m50 -18 c-16 -27 -50 -43 -50 -22 0 6 7 27 15
47 15 35 16 36 33 20 15 -16 15 -20 2 -45z"/>
<path d="M4056 4690 c7 -28 12 -35 18 -29 2 2 -2 15 -10 29 l-15 25 7 -25z"/>
<path d="M2544 4630 c-6 -6 -30 -14 -55 -19 l-44 -9 45 -1 c49 -1 75 10 69 28
-3 8 -7 9 -15 1z"/>
<path d="M4088 4633 c7 -3 16 -2 19 1 4 3 -2 6 -13 5 -11 0 -14 -3 -6 -6z"/>
<path d="M1444 4571 c10 -16 75 -31 135 -31 73 0 59 10 -30 21 -40 5 -82 12
-92 15 -13 4 -17 2 -13 -5z"/>
<path d="M5753 4513 c15 -2 39 -2 55 0 15 2 2 4 -28 4 -30 0 -43 -2 -27 -4z"/>
<path d="M5810 4421 c0 -17 4 -32 8 -35 4 -2 6 11 4 30 -5 42 -12 45 -12 5z"/>
<path d="M6274 4226 c-3 -8 -4 -27 -2 -43 3 -23 5 -20 9 15 5 43 2 53 -7 28z"/>
<path d="M991 3601 c-17 -55 -35 -101 -38 -101 -2 0 -2 24 1 53 4 38 4 46 -4
29 -5 -12 -14 -58 -20 -103 -7 -57 -19 -98 -41 -139 -40 -75 -113 -165 -166
-206 l-42 -32 62 -11 c34 -5 82 -13 107 -16 44 -5 179 8 213 21 16 6 15 0 -6
-57 -48 -128 -173 -353 -223 -401 -52 -51 9 -31 81 27 67 53 69 53 61 9 -3
-21 -11 -75 -17 -118 -5 -43 -16 -91 -24 -106 -13 -26 -13 -28 4 -23 16 4 19
-5 24 -99 3 -57 13 -123 21 -148 16 -44 114 -185 123 -177 2 3 -18 34 -45 70
-72 95 -77 114 -77 317 0 176 16 310 38 329 15 12 200 82 205 77 2 -2 0 -20
-3 -40 -7 -33 -11 -36 -62 -51 -30 -9 -53 -19 -50 -22 3 -3 27 2 53 11 l47 16
-6 -58 -5 -57 15 36 c15 36 15 36 146 68 164 39 245 63 231 68 -5 2 -86 -15
-178 -37 -93 -22 -170 -39 -173 -37 -2 3 3 35 11 73 21 94 49 360 42 389 -5
20 3 30 54 66 33 23 60 44 60 46 0 6 -41 -18 -91 -53 l-46 -34 -8 -98 c-4 -53
-12 -135 -19 -182 l-11 -85 -107 -37 c-109 -37 -124 -36 -95 7 49 72 40 69
-36 -9 -48 -49 -90 -87 -93 -83 -3 3 12 32 33 64 78 115 167 303 160 334 -1 7
24 20 56 31 62 21 74 34 16 18 -113 -33 -324 -51 -406 -34 l-29 6 68 68 c83
83 139 193 193 380 44 151 41 181 -4 41z"/>
<path d="M1452 3393 c-23 -16 -97 -111 -91 -118 2 -2 30 26 63 61 60 66 69 84
28 57z"/>
<path d="M2284 3055 c35 -134 48 -181 56 -196 6 -10 10 -21 10 -25 0 -13 -77
65 -137 139 -55 66 -85 88 -62 45 18 -35 211 -225 216 -212 2 6 -5 39 -16 75
l-20 64 36 -45 c63 -76 113 -121 214 -187 53 -34 99 -63 103 -63 3 0 6 22 6
49 0 58 30 159 65 220 14 24 19 38 10 31 -29 -24 -84 -150 -91 -209 l-6 -59
-67 42 c-82 51 -210 172 -249 234 -62 101 -73 116 -68 97z"/>
<path d="M183 2978 c-15 -19 -127 -225 -157 -289 -48 -103 -26 -85 27 21 29
58 74 144 100 193 44 79 55 107 30 75z"/>
<path d="M6655 2828 c-102 -83 -251 -175 -295 -181 -23 -3 -47 -10 -52 -15
-19 -19 79 5 127 31 51 29 249 166 275 192 31 31 -7 12 -55 -27z"/>
<path d="M1498 2706 c-32 -7 -61 -15 -64 -19 -11 -11 15 -8 96 12 83 21 58 26
-32 7z"/>
<path d="M3880 2619 c-175 -32 -196 -36 -188 -45 6 -5 223 27 316 48 28 6 52
15 52 20 0 4 -3 8 -7 7 -5 -1 -82 -14 -173 -30z"/>
<path d="M3988 2586 c-54 -11 -98 -24 -98 -29 0 -11 78 1 180 28 109 30 55 31
-82 1z"/>
<path d="M4130 2572 l-65 -16 67 -9 c44 -5 74 -5 85 2 15 9 14 10 -11 11 -28
0 -29 1 -10 15 23 17 17 17 -66 -3z"/>
<path d="M1180 2460 c-7 -90 17 -231 40 -238 6 -2 21 -25 35 -51 13 -26 40
-69 59 -94 20 -26 36 -51 36 -55 0 -12 134 -118 234 -185 l38 -27 -68 -71
c-38 -39 -88 -85 -112 -101 l-43 -30 8 54 c18 119 2 295 -27 313 -5 3 -3 -10
5 -29 18 -44 19 -192 2 -291 l-12 -70 43 21 c59 28 175 135 196 179 18 36 19
37 64 31 42 -5 44 -4 17 5 -16 6 -37 13 -45 16 -8 4 -19 5 -23 4 -17 -3 -71
33 -157 105 -184 154 -245 257 -275 459 -8 58 -14 77 -15 55z"/>
<path d="M2873 2358 c3 -8 -8 -21 -27 -32 l-31 -18 25 28 25 28 -30 -19 c-16
-10 -49 -30 -72 -43 -55 -30 -55 -36 -1 -12 24 10 44 17 47 15 2 -3 -2 -18 -9
-34 -13 -32 -8 -61 10 -61 5 0 10 7 10 15 0 10 10 15 33 15 19 0 56 7 83 15
27 8 59 15 72 15 13 0 22 6 22 15 0 8 -7 15 -15 15 -8 0 -15 7 -15 15 0 10
-10 15 -28 15 -15 0 -45 9 -66 21 -27 14 -37 16 -33 7z m77 -59 c0 -6 -4 -7
-10 -4 -5 3 -10 11 -10 16 0 6 5 7 10 4 6 -3 10 -11 10 -16z"/>
<path d="M810 2207 c-252 -530 -354 -988 -310 -1382 18 -157 60 -367 93 -466
l32 -96 -28 21 c-38 27 -160 173 -215 256 -57 84 -103 175 -137 273 -15 43
-29 76 -31 74 -2 -1 4 -32 12 -67 16 -71 93 -239 142 -310 17 -24 27 -47 22
-50 -5 -3 5 -14 23 -24 18 -10 57 -47 87 -83 30 -35 90 -91 132 -123 l78 -59
-20 37 c-35 66 -23 68 58 13 72 -49 155 -90 279 -140 95 -38 208 -67 156 -40
-13 7 -23 16 -23 21 0 5 -5 6 -10 3 -6 -3 -10 -2 -10 3 0 5 -28 26 -62 47
-186 112 -406 337 -506 515 -38 68 -52 165 -52 372 0 367 92 725 307 1196 36
79 62 146 59 149 -3 4 -37 -60 -76 -140z m-175 -1712 c98 -140 246 -277 409
-379 49 -31 87 -56 84 -56 -9 0 -185 73 -233 97 -27 14 -91 50 -142 80 -92 55
-92 55 -117 121 -28 74 -69 230 -57 216 4 -5 29 -40 56 -79z"/>
<path d="M3050 2320 c12 -19 30 -55 41 -80 11 -25 27 -60 35 -79 8 -18 17 -31
20 -28 10 10 -56 153 -87 187 l-31 35 22 -35z"/>
<path d="M2530 2280 c-13 -9 -13 -10 0 -9 8 0 24 4 35 9 l20 9 -20 0 c-11 0
-27 -4 -35 -9z"/>
<path d="M2618 2280 c26 -11 27 -18 7 -44 -18 -24 -20 -72 -2 -79 10 -4 10 -6
0 -6 -7 -1 -13 -5 -13 -10 0 -14 42 0 77 25 17 13 39 24 47 24 11 0 16 10 16
33 l0 32 -52 -3 c-47 -2 -51 -1 -35 11 16 14 16 15 -5 21 -13 3 -32 6 -43 5
-18 0 -18 -1 3 -9z m82 -85 c0 -2 -9 -9 -20 -15 -16 -9 -20 -8 -20 5 0 8 9 15
20 15 11 0 20 -2 20 -5z"/>
<path d="M2494 2264 c-7 -3 -10 -13 -7 -22 2 -9 -3 -69 -10 -133 -8 -64 -12
-128 -10 -143 13 -64 124 -126 226 -126 92 0 239 32 339 75 13 5 19 0 24 -19
8 -33 40 -56 76 -56 48 0 78 89 42 125 -9 9 -19 13 -22 10 -3 -3 0 -11 6 -17
18 -18 14 -63 -7 -89 -18 -22 -19 -23 -45 -5 -15 9 -31 28 -36 42 -12 30 -19
30 -116 -1 -212 -67 -350 -60 -436 22 -24 23 -28 35 -28 80 0 42 3 51 15 47
13 -5 15 9 15 89 0 54 -4 99 -10 102 -6 4 -8 11 -5 16 7 10 6 10 -11 3z m13
-156 c-3 -8 -6 -5 -6 6 -1 11 2 17 5 13 3 -3 4 -12 1 -19z"/>
<path d="M2550 2252 c0 -4 5 -13 12 -20 9 -9 9 -18 0 -37 -7 -14 -11 -47 -11
-73 1 -26 3 -39 6 -29 2 9 9 17 14 17 10 0 12 92 3 128 -6 21 -24 32 -24 14z"/>
<path d="M6221 2234 c0 -11 3 -14 6 -6 3 7 2 16 -1 19 -3 4 -6 -2 -5 -13z"/>
<path d="M6096 2102 c-78 -213 -195 -440 -334 -646 -184 -273 -392 -482 -647
-651 -132 -87 -175 -109 -186 -98 -4 4 -14 56 -21 115 -16 142 -33 116 -19
-29 6 -59 11 -110 11 -115 0 -22 169 59 280 135 321 217 598 553 801 971 72
147 165 394 157 416 -2 5 -21 -39 -42 -98z"/>
<path d="M6212 2170 c0 -14 2 -19 5 -12 2 6 2 18 0 25 -3 6 -5 1 -5 -13z"/>
<path d="M6204 2125 c-3 -8 -4 -20 -2 -27 3 -7 7 -1 10 15 6 29 1 36 -8 12z"/>
<path d="M3140 2116 c0 -5 7 -18 17 -28 9 -10 19 -35 23 -56 l8 -37 1 37 c1
26 -6 45 -24 65 -13 15 -25 24 -25 19z"/>
<path d="M1174 2006 c1 -67 5 -91 15 -94 10 -3 11 -1 5 9 -5 8 -12 50 -15 94
l-6 80 1 -89z"/>
<path d="M6182 2018 c-7 -35 -15 -74 -19 -88 -3 -14 -2 -22 2 -18 11 11 45
168 36 168 -4 0 -13 -28 -19 -62z"/>
<path d="M1131 1973 c7 -12 15 -20 18 -17 3 2 -3 12 -13 22 -17 16 -18 16 -5
-5z"/>
<path d="M6150 1885 c0 -8 2 -15 4 -15 2 0 6 7 10 15 3 8 1 15 -4 15 -6 0 -10
-7 -10 -15z"/>
<path d="M6136 1834 c-10 -37 -2 -39 11 -4 6 17 8 30 3 30 -4 0 -11 -12 -14
-26z"/>
<path d="M6087 1672 c-21 -64 -47 -139 -57 -165 -11 -27 -16 -46 -12 -43 18
11 127 326 113 326 -3 0 -23 -53 -44 -118z"/>
<path d="M5964 1365 c-22 -46 -37 -82 -32 -79 13 8 80 144 76 155 -2 5 -21
-29 -44 -76z"/>
<path d="M5906 1253 c-6 -14 -5 -15 5 -6 7 7 10 15 7 18 -3 3 -9 -2 -12 -12z"/>
<path d="M5871 1197 c-13 -21 -12 -21 5 -5 10 10 16 20 13 22 -3 3 -11 -5 -18
-17z"/>
<path d="M5730 999 c-95 -109 -104 -126 -21 -41 68 69 93 102 78 102 -1 0 -27
-28 -57 -61z"/>
<path d="M4892 1010 c0 -14 2 -19 5 -12 2 6 2 18 0 25 -3 6 -5 1 -5 -13z"/>
<path d="M5750 948 c-37 -171 -49 -381 -29 -513 6 -38 12 -88 15 -110 5 -50
33 -135 44 -135 5 0 5 15 0 33 -47 190 -49 599 -4 760 3 9 1 17 -4 17 -6 0
-15 -24 -22 -52z"/>
<path d="M0 794 c0 -11 15 -42 34 -69 39 -58 156 -188 163 -181 3 2 -21 35
-52 72 -32 37 -75 94 -96 128 -48 73 -49 74 -49 50z"/>
<path d="M5238 724 c-70 -24 -185 -55 -255 -68 -101 -19 -120 -24 -89 -27 36
-4 41 -8 49 -38 11 -46 106 -210 170 -297 94 -127 292 -304 327 -292 6 2 -12
19 -42 37 -127 81 -315 305 -403 480 -56 113 -60 104 57 130 97 21 292 91 313
112 5 5 7 8 5 8 -3 -1 -62 -21 -132 -45z"/>
<path d="M5821 103 c32 -54 70 -105 75 -100 6 6 -79 136 -89 136 -5 1 1 -16
14 -36z"/>
</g>
</svg>
